<svg xmlns="http://www.w3.org/2000/svg" width="40" height="1350" viewBox="0 0 40 1350" fill="none">
<g clip-path="url(#svg-1401417217_7821_clip0_852_11666)">
<line y1="9.5" x2="12" y2="9.5" stroke="#6C6C6C"/>
<line y1="19.5" x2="12" y2="19.5" stroke="#6C6C6C"/>
<line y1="29.5" x2="12" y2="29.5" stroke="#6C6C6C"/>
<line y1="39.5" x2="12" y2="39.5" stroke="#6C6C6C"/>
<line y1="49.5" x2="24" y2="49.5" stroke="#6C6C6C"/>
<line y1="59.5" x2="12" y2="59.5" stroke="#6C6C6C"/>
<line y1="69.5" x2="12" y2="69.5" stroke="#6C6C6C"/>
<line y1="79.5" x2="12" y2="79.5" stroke="#6C6C6C"/>
<line y1="89.5" x2="12" y2="89.5" stroke="#6C6C6C"/>
<line y1="99.5" x2="24" y2="99.5" stroke="#6C6C6C"/>
<line y1="109.5" x2="12" y2="109.5" stroke="#6C6C6C"/>
<line y1="119.5" x2="12" y2="119.5" stroke="#6C6C6C"/>
<line y1="129.5" x2="12" y2="129.5" stroke="#6C6C6C"/>
<line y1="139.5" x2="12" y2="139.5" stroke="#6C6C6C"/>
<line y1="149.5" x2="24" y2="149.5" stroke="#6C6C6C"/>
<line y1="159.5" x2="12" y2="159.5" stroke="#6C6C6C"/>
<line y1="169.5" x2="12" y2="169.5" stroke="#6C6C6C"/>
<line y1="179.5" x2="12" y2="179.5" stroke="#6C6C6C"/>
<line y1="189.5" x2="12" y2="189.5" stroke="#6C6C6C"/>
<line y1="199.5" x2="24" y2="199.5" stroke="#6C6C6C"/>
<line y1="209.5" x2="12" y2="209.5" stroke="#6C6C6C"/>
<line y1="219.5" x2="12" y2="219.5" stroke="#6C6C6C"/>
<line y1="229.5" x2="12" y2="229.5" stroke="#6C6C6C"/>
<line y1="239.5" x2="12" y2="239.5" stroke="#6C6C6C"/>
<line y1="249.5" x2="24" y2="249.5" stroke="#6C6C6C"/>
<line y1="259.5" x2="12" y2="259.5" stroke="#6C6C6C"/>
<line y1="269.5" x2="12" y2="269.5" stroke="#6C6C6C"/>
<line y1="279.5" x2="12" y2="279.5" stroke="#6C6C6C"/>
<line y1="289.5" x2="12" y2="289.5" stroke="#6C6C6C"/>
<line y1="299.5" x2="24" y2="299.5" stroke="#6C6C6C"/>
<line y1="309.5" x2="12" y2="309.5" stroke="#6C6C6C"/>
<line y1="319.5" x2="12" y2="319.5" stroke="#6C6C6C"/>
<line y1="329.5" x2="12" y2="329.5" stroke="#6C6C6C"/>
<line y1="339.5" x2="12" y2="339.5" stroke="#6C6C6C"/>
<line y1="349.5" x2="24" y2="349.5" stroke="#6C6C6C"/>
<line y1="359.5" x2="12" y2="359.5" stroke="#6C6C6C"/>
<line y1="369.5" x2="12" y2="369.5" stroke="#6C6C6C"/>
<line y1="379.5" x2="12" y2="379.5" stroke="#6C6C6C"/>
<line y1="389.5" x2="12" y2="389.5" stroke="#6C6C6C"/>
<line y1="399.5" x2="24" y2="399.5" stroke="#6C6C6C"/>
<line y1="409.5" x2="12" y2="409.5" stroke="#6C6C6C"/>
<line y1="419.5" x2="12" y2="419.5" stroke="#6C6C6C"/>
<line y1="429.5" x2="12" y2="429.5" stroke="#6C6C6C"/>
<line y1="439.5" x2="12" y2="439.5" stroke="#6C6C6C"/>
<line y1="449.5" x2="24" y2="449.5" stroke="#6C6C6C"/>
<line y1="459.5" x2="12" y2="459.5" stroke="#6C6C6C"/>
<line y1="469.5" x2="12" y2="469.5" stroke="#6C6C6C"/>
<line y1="479.5" x2="12" y2="479.5" stroke="#6C6C6C"/>
<line y1="489.5" x2="12" y2="489.5" stroke="#6C6C6C"/>
<line y1="499.5" x2="24" y2="499.5" stroke="#6C6C6C"/>
<line y1="509.5" x2="12" y2="509.5" stroke="#6C6C6C"/>
<line y1="519.5" x2="12" y2="519.5" stroke="#6C6C6C"/>
<line y1="529.5" x2="12" y2="529.5" stroke="#6C6C6C"/>
<line y1="539.5" x2="12" y2="539.5" stroke="#6C6C6C"/>
<line y1="549.5" x2="24" y2="549.5" stroke="#6C6C6C"/>
<line y1="559.5" x2="12" y2="559.5" stroke="#6C6C6C"/>
<line y1="569.5" x2="12" y2="569.5" stroke="#6C6C6C"/>
<line y1="579.5" x2="12" y2="579.5" stroke="#6C6C6C"/>
<line y1="589.5" x2="12" y2="589.5" stroke="#6C6C6C"/>
<line y1="599.5" x2="24" y2="599.5" stroke="#6C6C6C"/>
<line y1="609.5" x2="12" y2="609.5" stroke="#6C6C6C"/>
<line y1="619.5" x2="12" y2="619.5" stroke="#6C6C6C"/>
<line y1="629.5" x2="12" y2="629.5" stroke="#6C6C6C"/>
<line y1="639.5" x2="12" y2="639.5" stroke="#6C6C6C"/>
<line y1="649.5" x2="24" y2="649.5" stroke="#6C6C6C"/>
<line y1="659.5" x2="16" y2="659.5" stroke="#6C6C6C"/>
<line y1="669.5" x2="20" y2="669.5" stroke="#604842"/>
<line y1="679.35" x2="20" y2="679.35" stroke="#72240E" stroke-width="1.3"/>
<line y1="689.2" x2="20" y2="689.2" stroke="#9B462E" stroke-width="1.6"/>
<line y1="699" x2="40" y2="699" stroke="#F05023" stroke-width="2"/>
<line y1="709.2" x2="20" y2="709.2" stroke="#9B462E" stroke-width="1.6"/>
<line y1="719.35" x2="20" y2="719.35" stroke="#7D4333" stroke-width="1.3"/>
<line y1="729.5" x2="20" y2="729.5" stroke="#604842"/>
<line y1="739.5" x2="16" y2="739.5" stroke="#6C6C6C"/>
<line y1="749.5" x2="24" y2="749.5" stroke="#6C6C6C"/>
<line y1="759.5" x2="12" y2="759.5" stroke="#6C6C6C"/>
<line y1="769.5" x2="12" y2="769.5" stroke="#6C6C6C"/>
<line y1="779.5" x2="12" y2="779.5" stroke="#6C6C6C"/>
<line y1="789.5" x2="12" y2="789.5" stroke="#6C6C6C"/>
<line y1="799.5" x2="24" y2="799.5" stroke="#6C6C6C"/>
<line y1="809.5" x2="12" y2="809.5" stroke="#6C6C6C"/>
<line y1="819.5" x2="12" y2="819.5" stroke="#6C6C6C"/>
<line y1="829.5" x2="12" y2="829.5" stroke="#6C6C6C"/>
<line y1="839.5" x2="12" y2="839.5" stroke="#6C6C6C"/>
<line y1="849.5" x2="24" y2="849.5" stroke="#6C6C6C"/>
<line y1="859.5" x2="12" y2="859.5" stroke="#6C6C6C"/>
<line y1="869.5" x2="12" y2="869.5" stroke="#6C6C6C"/>
<line y1="879.5" x2="12" y2="879.5" stroke="#6C6C6C"/>
<line y1="889.5" x2="12" y2="889.5" stroke="#6C6C6C"/>
<line y1="899.5" x2="24" y2="899.5" stroke="#6C6C6C"/>
<line y1="909.5" x2="12" y2="909.5" stroke="#6C6C6C"/>
<line y1="919.5" x2="12" y2="919.5" stroke="#6C6C6C"/>
<line y1="929.5" x2="12" y2="929.5" stroke="#6C6C6C"/>
<line y1="939.5" x2="12" y2="939.5" stroke="#6C6C6C"/>
<line y1="949.5" x2="24" y2="949.5" stroke="#6C6C6C"/>
<line y1="959.5" x2="12" y2="959.5" stroke="#6C6C6C"/>
<line y1="969.5" x2="12" y2="969.5" stroke="#6C6C6C"/>
<line y1="979.5" x2="12" y2="979.5" stroke="#6C6C6C"/>
<line y1="989.5" x2="12" y2="989.5" stroke="#6C6C6C"/>
<line y1="999.5" x2="24" y2="999.5" stroke="#6C6C6C"/>
<line y1="1009.5" x2="12" y2="1009.5" stroke="#6C6C6C"/>
<line y1="1019.5" x2="12" y2="1019.5" stroke="#6C6C6C"/>
<line y1="1029.5" x2="12" y2="1029.5" stroke="#6C6C6C"/>
<line y1="1039.5" x2="12" y2="1039.5" stroke="#6C6C6C"/>
<line y1="1049.5" x2="24" y2="1049.5" stroke="#6C6C6C"/>
<line y1="1059.5" x2="12" y2="1059.5" stroke="#6C6C6C"/>
<line y1="1069.5" x2="12" y2="1069.5" stroke="#6C6C6C"/>
<line y1="1079.5" x2="12" y2="1079.5" stroke="#6C6C6C"/>
<line y1="1089.5" x2="12" y2="1089.5" stroke="#6C6C6C"/>
<line y1="1099.5" x2="24" y2="1099.5" stroke="#6C6C6C"/>
<line y1="1109.5" x2="12" y2="1109.5" stroke="#6C6C6C"/>
<line y1="1119.5" x2="12" y2="1119.5" stroke="#6C6C6C"/>
<line y1="1129.5" x2="12" y2="1129.5" stroke="#6C6C6C"/>
<line y1="1139.5" x2="12" y2="1139.5" stroke="#6C6C6C"/>
<line y1="1149.5" x2="24" y2="1149.5" stroke="#6C6C6C"/>
<line y1="1159.5" x2="12" y2="1159.5" stroke="#6C6C6C"/>
<line y1="1169.5" x2="12" y2="1169.5" stroke="#6C6C6C"/>
<line y1="1179.5" x2="12" y2="1179.5" stroke="#6C6C6C"/>
<line y1="1189.5" x2="12" y2="1189.5" stroke="#6C6C6C"/>
<line y1="1199.5" x2="24" y2="1199.5" stroke="#6C6C6C"/>
<line y1="1209.5" x2="12" y2="1209.5" stroke="#6C6C6C"/>
<line y1="1219.5" x2="12" y2="1219.5" stroke="#6C6C6C"/>
<line y1="1229.5" x2="12" y2="1229.5" stroke="#6C6C6C"/>
<line y1="1239.5" x2="12" y2="1239.5" stroke="#6C6C6C"/>
<line y1="1249.5" x2="24" y2="1249.5" stroke="#6C6C6C"/>
<line y1="1259.5" x2="12" y2="1259.5" stroke="#6C6C6C"/>
<line y1="1269.5" x2="12" y2="1269.5" stroke="#6C6C6C"/>
<line y1="1279.5" x2="12" y2="1279.5" stroke="#6C6C6C"/>
<line y1="1289.5" x2="12" y2="1289.5" stroke="#6C6C6C"/>
<line y1="1299.5" x2="24" y2="1299.5" stroke="#6C6C6C"/>
<line y1="1309.5" x2="12" y2="1309.5" stroke="#6C6C6C"/>
<line y1="1319.5" x2="12" y2="1319.5" stroke="#6C6C6C"/>
<line y1="1329.5" x2="12" y2="1329.5" stroke="#6C6C6C"/>
<line y1="1339.5" x2="12" y2="1339.5" stroke="#6C6C6C"/>
<line y1="1349.5" x2="24" y2="1349.5" stroke="#6C6C6C"/>
</g>
<defs>
<clipPath id="svg-1401417217_7821_clip0_852_11666">
<rect width="40" height="1350" fill="white"/>
</clipPath>
</defs>
</svg>